<?xml version="1.0" encoding="iso-8859-1"?>
<!-- Generator: Adobe Illustrator 18.1.1, SVG Export Plug-In . SVG Version: 6.00 Build 0)  -->
<svg version="1.1" id="Capa_1" xmlns="http://www.w3.org/2000/svg" xmlns:xlink="http://www.w3.org/1999/xlink" x="0px" y="0px"
	 viewBox="0 0 54.306 54.306" style="enable-background:new 0 0 54.306 54.306;" xml:space="preserve">
<g>
	<g>
		<path style="fill:#010002;" d="M27.153,13.141c-10.371,0-19.419,5.638-24.265,14.012c4.846,8.374,13.894,14.012,24.265,14.012
			s19.419-5.638,24.265-14.012C46.572,18.779,37.524,13.141,27.153,13.141z"/>
		<path style="fill:#010002;" d="M27.153,43.665c-10.854,0-20.981-5.848-26.428-15.26L0,27.153l0.724-1.252
			c5.447-9.413,15.574-15.26,26.429-15.26c10.854,0,20.981,5.847,26.429,15.26l0.725,1.252l-0.725,1.252
			C48.134,37.818,38.007,43.665,27.153,43.665z M5.826,27.153c4.701,7.136,12.743,11.512,21.327,11.512
			c8.585,0,16.626-4.376,21.327-11.512c-4.701-7.136-12.742-11.512-21.327-11.512S10.527,20.017,5.826,27.153z"/>
	</g>
	<g>
		<circle style="fill:#010002;" cx="28.076" cy="26.343" r="12.188"/>
		<path style="fill:#010002;" d="M28.076,41.031c-8.099,0-14.688-6.589-14.688-14.688c0-8.099,6.589-14.688,14.688-14.688
			s14.688,6.589,14.688,14.688C42.764,34.442,36.175,41.031,28.076,41.031z M28.076,16.655c-5.342,0-9.688,4.346-9.688,9.688
			s4.346,9.688,9.688,9.688c5.342,0,9.688-4.346,9.688-9.688S33.418,16.655,28.076,16.655z"/>
	</g>
	<circle style="fill:#010002;" cx="33.513" cy="22.516" r="5.375"/>
</g>
<g>
</g>
<g>
</g>
<g>
</g>
<g>
</g>
<g>
</g>
<g>
</g>
<g>
</g>
<g>
</g>
<g>
</g>
<g>
</g>
<g>
</g>
<g>
</g>
<g>
</g>
<g>
</g>
<g>
</g>
</svg>
