<?xml version="1.0" encoding="utf-8"?>
<!-- Generator: Adobe Illustrator 24.0.3, SVG Export Plug-In . SVG Version: 6.00 Build 0)  -->
<svg version="1.1" id="Layer_1" xmlns="http://www.w3.org/2000/svg" xmlns:xlink="http://www.w3.org/1999/xlink" x="0px" y="0px"
	 viewBox="0 0 100 100" style="enable-background:new 0 0 100 100;" xml:space="preserve">
<g>
	<path d="M91.8,92.6"/>
	<path d="M6.8,93V7.9c0,0,0.1-2.3-0.6-2.1l0,0C5.2,5.7,5.3,6.7,5.3,8.3v80.1v6.1c0,0.2,0.1,0.3,0.3,0.3h89c0.6,0,0.7-2.2,0.1-2.2"/>
	<path d="M6.9,57.3l7.6-8.3l1,1.2c0.4,0.6,1.4,0.9,2.5,0.9c1.1-0.1,2-0.5,2.3-1.1l3.7-7.7l3.3,2.5c0.7,0.5,1.5,0.6,2.5,0.5
		c1-0.1,1.8-0.5,2-1.1l15.6-31.4l10,28.1c0.2,0.6,1,1.1,2.1,1.2c1,0.1,2.1-0.1,2.6-0.6l3.2-2.8l4.9,8.7c0.3,0.6,1.4,1.1,2.5,1
		c1.2,0,2.2-0.5,2.4-1.2l4.4-9.7l10.3,20.9h2.9L82.2,36.7c-0.2-0.7-1.2-1.2-2.4-1.4c-1.2-0.1-2.3,0.5-2.6,1.2l-4.4,9.8l-4.8-8.7
		c-0.3-0.6-1.1-1-2.1-1c-1-0.1-2,0.2-2.5,0.6L60.1,40l-10-28.2c-0.2-0.7-1.2-1.2-2.4-1.2c-1.3,0.1-2.4,0.5-2.7,1.2L29.1,43.5
		L25.8,41c-0.7-0.5-1.5-0.6-2.5-0.5c-1,0.1-1.8,0.5-2,1.1l-3.7,7.6l-1-1.2c-0.4-0.5-1.4-0.9-2.4-0.9c-1,0-1.9,0.4-2.3,0.9l-6.6,9.3
		h3H6.9z"/>
</g>
</svg>
