<?xml version="1.0" encoding="iso-8859-1"?>
<!-- Generator: Adobe Illustrator 19.0.0, SVG Export Plug-In . SVG Version: 6.00 Build 0)  -->
<svg version="1.1" id="Layer_1" xmlns="http://www.w3.org/2000/svg" xmlns:xlink="http://www.w3.org/1999/xlink" x="0px" y="0px"
	 viewBox="0 0 512 512" style="enable-background:new 0 0 512 512;" xml:space="preserve">
<g>
	<g>
		<path d="M494.529,217.671L291.533,14.677c-19.547-19.559-51.5-19.579-71.063-0.003L17.472,217.672
			c-19.619,19.619-19.615,51.373,0.016,70.988c15.342,15.33,37.317,18.24,54.897,10.84v195.807c0,9.219,7.474,16.692,16.692,16.692
			c8.168,0,295.35,0,333.846,0c9.219,0,16.581-7.474,16.581-16.692V299.501c17.576,7.399,39.668,4.488,55.008-10.842
			C514.14,269.048,514.15,237.294,494.529,217.671z M306.077,478.616H205.812V378.462h100.265V478.616z M406.231,478.616H339.35
			V361.769c0-9.219-7.362-16.692-16.581-16.692H189.231c-9.219,0-16.692,7.474-16.692,16.692v116.846h-66.881V271.29
			c46.134-46.212,118.445-118.521,150.324-150.43c32.991,33,108.131,108.247,150.249,150.431V478.616z M470.916,265.043
			c-6.541,6.536-17.083,6.676-23.669,0.081C421.264,239.096,293.651,111.283,267.77,85.44c-6.517-6.509-17.081-6.509-23.598,0.009
			c-26.726,26.73-152.558,152.766-179.419,179.674c-6.462,6.473-17.005,6.577-23.67-0.08c-6.57-6.566-6.573-17.195-0.004-23.764
			L244.079,38.277c6.53-6.532,17.337-6.508,23.844,0.003l202.999,202.999C477.489,247.848,477.489,258.477,470.916,265.043z"/>
	</g>
</g>
<g>
	<g>
		<path d="M257.076,200.41c-27.612,0-50.077,22.464-50.077,50.077s22.465,50.077,50.077,50.077s50.077-22.464,50.077-50.077
			S284.688,200.41,257.076,200.41z M257.076,267.18c-9.204,0-16.692-7.488-16.692-16.692c0-9.204,7.488-16.692,16.692-16.692
			c9.204,0,16.692,7.488,16.692,16.692C273.768,259.691,266.28,267.18,257.076,267.18z"/>
	</g>
</g>
<g>
</g>
<g>
</g>
<g>
</g>
<g>
</g>
<g>
</g>
<g>
</g>
<g>
</g>
<g>
</g>
<g>
</g>
<g>
</g>
<g>
</g>
<g>
</g>
<g>
</g>
<g>
</g>
<g>
</g>
</svg>
