<?xml version="1.0" encoding="iso-8859-1"?>
<!-- Generator: Adobe Illustrator 19.0.0, SVG Export Plug-In . SVG Version: 6.00 Build 0)  -->
<svg version="1.1" id="Layer_1" xmlns="http://www.w3.org/2000/svg" xmlns:xlink="http://www.w3.org/1999/xlink" x="0px" y="0px"
	 viewBox="0 0 512 512" style="enable-background:new 0 0 512 512;" xml:space="preserve">
<g>
	<g>
		<path d="M501.333,245.333H245.63l58.849-24.385c5.438-2.25,8.021-8.5,5.771-13.938c-2.271-5.458-8.542-8.021-13.938-5.771
			l-58.857,24.389l90.315-90.306c4.167-4.167,4.167-10.917,0-15.083c-4.167-4.167-10.917-4.167-15.083,0l-90.306,90.296
			l24.368-58.858c2.25-5.448-0.333-11.688-5.771-13.938c-5.438-2.24-11.667,0.344-13.938,5.771l-24.375,58.875V74.667
			C202.667,68.771,197.896,64,192,64s-10.667,4.771-10.667,10.667v127.719l-24.375-58.875c-2.25-5.427-8.438-8-13.938-5.771
			c-5.438,2.25-8.021,8.49-5.771,13.938l24.368,58.858L71.313,120.24c-4.167-4.167-10.917-4.167-15.083,0
			c-4.167,4.167-4.167,10.917,0,15.083l90.315,90.306L87.688,201.24c-5.417-2.25-11.667,0.313-13.938,5.771
			c-2.25,5.438,0.333,11.688,5.771,13.938l58.849,24.385H10.667C4.771,245.333,0,250.104,0,256s4.771,10.667,10.667,10.667H138.37
			l-58.849,24.385c-5.438,2.25-8.021,8.5-5.771,13.938c1.708,4.104,5.667,6.583,9.854,6.583c1.375,0,2.75-0.26,4.083-0.813
			l58.857-24.389l-90.315,90.306c-4.167,4.167-4.167,10.917,0,15.083c2.083,2.083,4.813,3.125,7.542,3.125
			c2.729,0,5.458-1.042,7.542-3.125l90.306-90.296l-24.368,58.858c-2.25,5.448,0.333,11.688,5.771,13.938
			c1.333,0.552,2.729,0.813,4.083,0.813c4.188,0,8.146-2.479,9.854-6.583l24.375-58.875v127.719c0,5.896,4.771,10.667,10.667,10.667
			s10.667-4.771,10.667-10.667V309.615l24.375,58.875c1.708,4.104,5.667,6.583,9.854,6.583c1.354,0,2.75-0.26,4.083-0.813
			c5.438-2.25,8.021-8.49,5.771-13.938l-24.368-58.858l90.306,90.296c2.083,2.083,4.813,3.125,7.542,3.125
			c2.729,0,5.458-1.042,7.542-3.125c4.167-4.167,4.167-10.917,0-15.083l-90.315-90.306l58.857,24.389
			c1.333,0.552,2.708,0.813,4.083,0.813c4.188,0,8.146-2.479,9.854-6.583c2.25-5.438-0.333-11.688-5.771-13.938l-58.849-24.385
			h255.703c5.896,0,10.667-4.771,10.667-10.667S507.229,245.333,501.333,245.333z M192,277.333c7.798,0,14.333-4.409,18.055-10.667
			h11.98C217.617,279.056,205.888,288,192,288c-17.646,0-32-14.354-32-32s14.354-32,32-32c13.888,0,25.617,8.944,30.035,21.333
			h-11.98c-3.721-6.258-10.257-10.667-18.055-10.667c-11.771,0-21.333,9.573-21.333,21.333S180.229,277.333,192,277.333z"/>
	</g>
</g>
<g>
</g>
<g>
</g>
<g>
</g>
<g>
</g>
<g>
</g>
<g>
</g>
<g>
</g>
<g>
</g>
<g>
</g>
<g>
</g>
<g>
</g>
<g>
</g>
<g>
</g>
<g>
</g>
<g>
</g>
</svg>
