<?xml version="1.0" encoding="utf-8"?>
<!-- Generator: Adobe Illustrator 24.0.3, SVG Export Plug-In . SVG Version: 6.00 Build 0)  -->
<svg version="1.1" id="Layer_1" xmlns="http://www.w3.org/2000/svg" xmlns:xlink="http://www.w3.org/1999/xlink" x="0px" y="0px"
	 viewBox="0 0 64 64" style="enable-background:new 0 0 64 64;" xml:space="preserve">
<g>
	<g>
		<path d="M60.6,11.2c-0.2-0.4-0.5-0.7-0.9-0.8c-0.4-0.1-0.8,0-1.1,0.3l-7.4,7.4l-5.6-5.6L53,5.2c0.3-0.3,0.4-0.7,0.3-1.1
			c-0.1-0.4-0.4-0.8-0.8-0.9c-1.7-0.7-3.4-1-5.2-1c-3.8,0-7.4,1.5-10,4.2c-3.8,3.8-5.1,9.4-3.5,14.5L14.8,39.9L5,42.5
			c-0.4,0.1-0.8,0.5-0.9,0.9L1.4,53.5c-0.1,0.4,0,0.9,0.3,1.2L9,62c0.2,0.2,0.6,0.4,0.9,0.4c0.1,0,0.2,0,0.3,0l10.1-2.7
			c0.4-0.1,0.8-0.5,0.9-0.9l2.7-9.8L43,29.9c1.4,0.5,2.9,0.7,4.4,0.7c3.8,0,7.4-1.5,10-4.2C61.4,22.5,62.7,16.5,60.6,11.2z
			 M55.6,24.7c-2.2,2.2-5.1,3.4-8.3,3.4c-1.5,0-2.9-0.3-4.3-0.8c-0.5-0.2-1-0.1-1.3,0.3L21.9,47.4c-0.2,0.2-0.3,0.3-0.3,0.6L19,57.4
			l-8.7,2.4L4,53.5l2.4-8.7l9.4-2.6c0.2-0.1,0.4-0.2,0.6-0.3L36.2,22c0.4-0.4,0.5-0.9,0.3-1.3c-1.7-4.3-0.7-9.3,2.6-12.6
			c2.2-2.2,5.1-3.4,8.3-3.4c0.8,0,1.6,0.1,2.4,0.2L43,11.7c-0.5,0.5-0.5,1.3,0,1.8l7.3,7.3c0.5,0.5,1.3,0.5,1.8,0l6.8-6.8
			C59.6,17.9,58.4,21.9,55.6,24.7z"/>
		<path d="M12.7,45.9c-1.4,0-2.7,0.5-3.6,1.5c-1,1-1.5,2.3-1.5,3.6c0,1.4,0.5,2.7,1.5,3.6c1,1,2.3,1.5,3.6,1.5
			c1.4,0,2.7-0.5,3.6-1.5c1-1,1.5-2.3,1.5-3.6c0-1.4-0.5-2.7-1.5-3.6C15.3,46.5,14.1,45.9,12.7,45.9z M14.5,52.9c-1,1-2.7,1-3.7,0
			c-0.5-0.5-0.8-1.2-0.8-1.9s0.3-1.4,0.8-1.9s1.2-0.8,1.9-0.8c0.7,0,1.4,0.3,1.9,0.8s0.8,1.2,0.8,1.9S15,52.4,14.5,52.9z"/>
		<path d="M36.5,25.5L18.2,43.8c-0.5,0.5-0.5,1.3,0,1.8c0.2,0.2,0.6,0.4,0.9,0.4c0.3,0,0.6-0.1,0.9-0.4l18.3-18.3
			c0.5-0.5,0.5-1.3,0-1.8C37.8,25,37,25,36.5,25.5z"/>
	</g>
</g>
</svg>
